<svg width="161" height="96" viewBox="0 0 161 96" fill="none" xmlns="http://www.w3.org/2000/svg">
<path d="M38.0193 41.5156H34.3933V32.7748H26.7138V41.5156H23.0877V21.3955H26.7138V29.6647H34.3933V21.3955H38.0193V41.5156ZM55.5305 41.5156H42.4561V21.3955H55.3978V24.3878H46.0821V29.8416H53.57V32.7601H46.0821V38.3907H55.5305V41.5156ZM74.4566 41.5156H70.58L68.9733 36.7251H61.2348L59.6577 41.5156H56.5623L63.2395 21.3955H67.7057L74.4566 41.5156ZM68.0005 33.8213L65.0672 24.8447L62.134 33.8213H68.0005ZM89.2703 41.5156H76.8887V21.3955H80.7064V38.2286H89.2703V41.5156ZM98.9839 41.5156H95.0926V24.5057H89.742V21.3955H104.335V24.5057H98.9839V41.5156ZM121.477 41.5156H117.851V32.7748H110.172V41.5156H106.546V21.3955H110.172V29.6647H117.851V21.3955H121.477V41.5156ZM134.006 41.5156H130.159V33.0254L123.305 21.3955H127.697L132.473 29.6942L137.043 21.3955H140.521L134.006 33.0254V41.5156Z" fill="black"/>
<path d="M40.7741 80.7656H27.0168V58.41H31.2586V77.1134H40.7741V80.7656ZM64.5546 80.7656H60.5257V58.41H64.5546V80.7656ZM90.3823 80.7656H86.2388V58.41H100.373V61.8657H90.3823V67.9746H98.2437V71.332H90.3823V80.7656ZM134.57 80.7656H120.042V58.41H134.422V61.7347H124.071V67.7944H132.391V71.0372H124.071V77.2935H134.57V80.7656Z" fill="#0B630F"/>
<rect x="1.25781" y="1.25781" width="158.484" height="93.0781" stroke="black" stroke-width="2.51562"/>
</svg>
